<svg xmlns="http://www.w3.org/2000/svg" viewBox="0 0 1000 1000" role="img" aria-label="BoPeePs business card mockup with new phone and email">
  <defs><linearGradient id="r" x1="0" x2="1"><stop stop-color="#760000"/><stop offset=".5" stop-color="#e51b23"/><stop offset="1" stop-color="#650000"/></linearGradient><linearGradient id="card" x1="0" x2="1"><stop stop-color="#090909"/><stop offset=".55" stop-color="#171717"/><stop offset="1" stop-color="#050505"/></linearGradient><filter id="sh"><feDropShadow dx="0" dy="20" stdDeviation="20" flood-color="#000" flood-opacity=".75"/></filter></defs>
  <rect width="1000" height="1000" fill="#171717"/>
  <rect x="115" y="146" width="770" height="330" rx="28" fill="url(#card)" stroke="#2b2b2b" stroke-width="5" filter="url(#sh)" transform="rotate(-4 500 311)"/>
  <rect x="115" y="146" width="770" height="80" rx="28" fill="url(#r)" opacity=".35" transform="rotate(-4 500 311)"/>
  <text x="350" y="270" text-anchor="middle" font-family="Brush Script MT, Segoe Script, cursive" font-size="86" fill="#f2f2f2" stroke="#111" stroke-width="4" transform="rotate(-4 350 270)">BoPeePs</text>
  <text x="350" y="328" text-anchor="middle" font-family="Arial Black, Impact, sans-serif" font-size="41" letter-spacing="6" fill="url(#r)" transform="rotate(-4 350 328)">DETAILS</text>
  <text x="350" y="371" text-anchor="middle" font-family="Brush Script MT, Segoe Script, cursive" font-size="40" fill="#fff" transform="rotate(-4 350 371)">and More</text>
  <text x="305" y="432" font-family="Arial Black, Impact, sans-serif" font-size="46" fill="#fff" transform="rotate(-4 305 432)">706-897-6177</text>
  <text x="305" y="475" font-family="Arial, sans-serif" font-size="28" fill="#fff" transform="rotate(-4 305 475)">bopeepsdetail@gmail.com</text>
  <g transform="rotate(-4 675 300)"><path d="M550 294c70-45 152-53 240-25 35 11 61 29 83 51-83-18-159-21-230-8-42 8-73 3-93-18z" fill="none" stroke="#e9e9e9" stroke-width="8"/><circle cx="655" cy="357" r="38" fill="none" stroke="#777" stroke-width="7"/><circle cx="789" cy="357" r="38" fill="none" stroke="#777" stroke-width="7"/></g>
  <g font-family="Arial, sans-serif" font-size="25" fill="#eee" transform="rotate(-4 630 418)"><text x="590" y="390">◆ PROFESSIONAL RESULTS</text><text x="590" y="428">◆ PREMIUM PRODUCTS</text><text x="590" y="466">◆ DETAIL ORIENTED</text></g>
  <rect x="153" y="583" width="695" height="285" rx="28" fill="url(#card)" stroke="#2a2a2a" stroke-width="5" filter="url(#sh)" transform="rotate(5 500 725)"/>
  <text x="500" y="690" text-anchor="middle" font-family="Brush Script MT, Segoe Script, cursive" font-size="91" fill="#f4f4f4" stroke="#111" stroke-width="4" transform="rotate(5 500 690)">BoPeePs</text>
  <text x="500" y="745" text-anchor="middle" font-family="Arial Black, Impact, sans-serif" font-size="42" letter-spacing="6" fill="url(#r)" transform="rotate(5 500 745)">DETAILS</text>
  <text x="500" y="792" text-anchor="middle" font-family="Brush Script MT, Segoe Script, cursive" font-size="43" fill="#fff" transform="rotate(5 500 792)">and More</text>
  <text x="500" y="855" text-anchor="middle" font-family="Arial Black, Impact, sans-serif" font-size="26" fill="#e51b23" transform="rotate(5 500 855)">A CLEAN CAR IS MORE THAN JUST LOOKS, IT'S PRIDE.</text>
</svg>
