<svg xmlns="http://www.w3.org/2000/svg" viewBox="0 0 1000 1000" role="img" aria-label="BoPeePs round logo 706-897-6177">
  <defs>
    <linearGradient id="r" x1="0" x2="1"><stop stop-color="#6a0000"/><stop offset=".45" stop-color="#ed1c24"/><stop offset="1" stop-color="#7a0000"/></linearGradient>
    <linearGradient id="c" x1="0" x2="0" y1="0" y2="1"><stop stop-color="#fff"/><stop offset=".55" stop-color="#d6d6d6"/><stop offset="1" stop-color="#777"/></linearGradient>
    <filter id="s"><feDropShadow dx="0" dy="8" stdDeviation="6" flood-color="#000" flood-opacity=".95"/></filter>
  </defs>
  <rect width="1000" height="1000" fill="#030303"/>
  <circle cx="500" cy="500" r="438" fill="#050505" stroke="url(#r)" stroke-width="15"/>
  <circle cx="500" cy="500" r="398" fill="none" stroke="url(#c)" stroke-width="10"/>
  <circle cx="500" cy="500" r="373" fill="none" stroke="#202020" stroke-width="18"/>
  <text x="500" y="315" text-anchor="middle" font-family="Brush Script MT, Segoe Script, cursive" font-size="142" font-weight="700" fill="url(#c)" stroke="#111" stroke-width="8" filter="url(#s)">BoPeePs</text>
  <text x="500" y="435" text-anchor="middle" font-family="Arial Black, Impact, sans-serif" font-size="82" letter-spacing="14" fill="url(#r)">DETAILS</text>
  <text x="500" y="525" text-anchor="middle" font-family="Brush Script MT, Segoe Script, cursive" font-size="76" fill="#fff">and More</text>
  <path d="M278 512h92M632 512h92" stroke="#eee" stroke-width="6" stroke-linecap="round"/>
  <path d="M250 702c35-87 127-139 248-139 123 0 216 52 252 139" fill="none" stroke="url(#c)" stroke-width="11" stroke-linecap="round"/>
  <path d="M275 706h450v46c-49 23-121 34-225 34s-176-11-225-34z" fill="#050505" stroke="url(#c)" stroke-width="6"/>
  <circle cx="334" cy="718" r="28" fill="none" stroke="#fff" stroke-width="9"/><circle cx="666" cy="718" r="28" fill="none" stroke="#fff" stroke-width="9"/>
  <g fill="#fff"><path d="M176 237l14 32 32 14-32 14-14 32-14-32-32-14 32-14z"/><path d="M791 199l13 29 29 13-29 13-13 29-13-29-29-13 29-13z"/><path d="M185 565l18 40 40 18-40 18-18 40-18-40-40-18 40-18z"/><path d="M822 541l16 36 36 16-36 16-16 36-16-36-36-16 36-16z"/></g>
  <path id="phoneArc" d="M206 781 A390 390 0 0 0 794 781" fill="none"/>
  <text font-family="Arial Black, Impact, sans-serif" font-size="64" letter-spacing="7" fill="url(#r)"><textPath href="#phoneArc" startOffset="50%" text-anchor="middle">706-897-6177</textPath></text>
</svg>
