<svg xmlns="http://www.w3.org/2000/svg" viewBox="0 0 1600 900" role="img" aria-label="BoPeePs social promo 706-897-6177">
  <defs><linearGradient id="r" x1="0" x2="1"><stop stop-color="#650000"/><stop offset=".5" stop-color="#e51b23"/><stop offset="1" stop-color="#650000"/></linearGradient><radialGradient id="spot" cx="70%" cy="35%" r="60%"><stop stop-color="#333"/><stop offset=".45" stop-color="#090909"/><stop offset="1" stop-color="#000"/></radialGradient><filter id="sh"><feDropShadow dx="0" dy="10" stdDeviation="9" flood-color="#000" flood-opacity=".8"/></filter></defs>
  <rect width="1600" height="900" fill="url(#spot)"/>
  <path d="M0 770c273-94 534-117 785-68 259 51 531 31 815-61v259H0z" fill="url(#r)" opacity=".36"/>
  <g opacity=".45" stroke="#fff" stroke-width="12" fill="none"><path d="M910 352c78-91 184-137 318-120 113 14 205 66 276 151-151-45-288-52-411-22-80 20-141 17-183-9z"/><circle cx="1110" cy="531" r="80"/><circle cx="1350" cy="530" r="80"/></g>
  <g font-family="Arial Black, Impact, sans-serif" filter="url(#sh)">
    <text x="80" y="150" font-size="86" fill="#fff">A CLEAN CAR</text>
    <text x="80" y="250" font-size="86" fill="#fff">IS MORE THAN</text>
    <text x="80" y="420" font-size="150" fill="url(#r)" font-family="Brush Script MT, Segoe Script, cursive">JUST LOOKS.</text>
    <text x="80" y="552" font-size="89" fill="#fff">IT'S PRIDE.</text>
  </g>
  <g transform="translate(95 604)">
    <text x="0" y="88" font-family="Brush Script MT, Segoe Script, cursive" font-size="88" fill="#fff" stroke="#111" stroke-width="5">BoPeePs</text>
    <text x="31" y="143" font-family="Arial Black, Impact, sans-serif" font-size="42" fill="url(#r)">DETAILS</text>
    <text x="52" y="187" font-family="Brush Script MT, Segoe Script, cursive" font-size="42" fill="#fff">and More</text>
  </g>
  <rect x="505" y="754" width="1095" height="92" fill="#050505" opacity=".82"/>
  <text x="630" y="794" font-family="Arial, sans-serif" font-size="31" fill="#fff">CALL OR TEXT</text>
  <text x="830" y="824" text-anchor="middle" font-family="Arial Black, Impact, sans-serif" font-size="62" fill="url(#r)">706-897-6177</text>
  <text x="1240" y="812" text-anchor="middle" font-family="Arial, sans-serif" font-size="40" fill="#fff">bopeepsdetail@gmail.com</text>
  <path d="M1040 754v92" stroke="#e51b23" stroke-width="3"/>
</svg>
