<svg xmlns="http://www.w3.org/2000/svg" viewBox="0 0 1400 933" role="img" aria-label="BoPeePs truck wrap mockup 706-897-6177">
  <defs><linearGradient id="body" x1="0" x2="1"><stop stop-color="#111"/><stop offset=".45" stop-color="#050505"/><stop offset="1" stop-color="#1c1c1c"/></linearGradient><linearGradient id="r" x1="0" x2="1"><stop stop-color="#7b0000"/><stop offset=".5" stop-color="#ed1c24"/><stop offset="1" stop-color="#6a0000"/></linearGradient><filter id="sh"><feDropShadow dx="0" dy="8" stdDeviation="8" flood-color="#000" flood-opacity=".55"/></filter></defs>
  <rect width="1400" height="933" fill="#f5f5f5"/>
  <ellipse cx="700" cy="755" rx="604" ry="42" fill="#000" opacity=".18"/>
  <g filter="url(#sh)">
    <path d="M112 520c25-122 103-197 242-226h358c101 0 174 59 219 136h287c67 0 110 35 120 90l-15 122H129z" fill="url(#body)" stroke="#2d2d2d" stroke-width="5"/>
    <path d="M378 300h232v148H324c8-70 25-116 54-148z" fill="#20272b" stroke="#444" stroke-width="4"/>
    <path d="M635 300h139c65 14 113 62 145 143H635z" fill="#20272b" stroke="#444" stroke-width="4"/>
    <path d="M955 448h271c38 0 72 22 84 58H948z" fill="#111"/>
    <path d="M118 574c190-85 366-104 530-57 180 52 399 50 678-7" fill="none" stroke="url(#r)" stroke-width="26" opacity=".9"/>
    <path d="M151 459c188 69 346 84 474 44 156-49 377-29 661 61" fill="none" stroke="url(#r)" stroke-width="16" opacity=".8"/>
    <path d="M176 616c246-47 438-46 576 5 149 55 321 54 517-7" fill="none" stroke="#d71920" stroke-width="9" opacity=".75"/>
    <text x="520" y="548" text-anchor="middle" font-family="Brush Script MT, Segoe Script, cursive" font-size="132" font-weight="700" fill="#f1f1f1" stroke="#111" stroke-width="8">BoPeePs</text>
    <text x="520" y="622" text-anchor="middle" font-family="Arial Black, Impact, sans-serif" font-size="49" letter-spacing="5" fill="url(#r)">DETAILS AND MORE</text>
    <text x="1134" y="543" text-anchor="middle" font-family="Arial Black, Impact, sans-serif" font-size="60" fill="#f5f5f5" stroke="#111" stroke-width="5">706-897-6177</text>
    <circle cx="334" cy="655" r="88" fill="#090909" stroke="#282828" stroke-width="9"/><circle cx="334" cy="655" r="50" fill="#121212" stroke="#050505" stroke-width="19"/><circle cx="1051" cy="655" r="88" fill="#090909" stroke="#282828" stroke-width="9"/><circle cx="1051" cy="655" r="50" fill="#121212" stroke="#050505" stroke-width="19"/>
    <path d="M130 559h85c22 0 38 20 34 42H122z" fill="#1f1f1f"/><path d="M1264 548h60v75h-73z" fill="#7c0b0b"/>
    <g fill="#fff"><path d="M418 420l9 20 20 9-20 9-9 20-9-20-20-9 20-9z"/><path d="M717 486l8 18 18 8-18 8-8 18-8-18-18-8 18-8z"/></g>
  </g>
</svg>
